<?xml version="1.0" encoding="utf-8"?>
<!-- Generator: Adobe Illustrator 23.0.1, SVG Export Plug-In . SVG Version: 6.00 Build 0)  -->
<svg version="1.1" id="Layer_1" xmlns:sketch="http://www.bohemiancoding.com/sketch/ns"
	 xmlns="http://www.w3.org/2000/svg" xmlns:xlink="http://www.w3.org/1999/xlink" x="0px" y="0px" viewBox="0 0 90 90"
	 style="enable-background:new 0 0 90 90;" xml:space="preserve">
<style type="text/css">
	.st0{fill-rule:evenodd;clip-rule:evenodd;fill:#F8963E;}
</style>
<title>add</title>
<desc>Created with Sketch.</desc>
<g sketch:type="MSPage">
	<path sketch:type="MSShapeGroup" class="st0" d="M73.4,23.6v12.6c0,2.2-1.7,3.9-3.8,3.9s-3.8-1.7-3.8-3.9V23.6H53.8
		c-2.1,0-3.8-1.7-3.8-3.8s1.7-3.8,3.8-3.8h11.9V4c0-2.2,1.7-3.9,3.8-3.9s3.8,1.7,3.8,3.9v11.9h12.8c2.1,0,3.8,1.7,3.8,3.8
		s-1.7,3.8-3.8,3.8H73.4L73.4,23.6z M82.7,40.4V79c0,2-1.7,3.7-3.7,3.7H11c-2,0-3.7-1.6-3.7-3.7V11C7.3,9,9,7.3,11,7.3h38.9V0H11
		C4.9,0,0,4.9,0,11V79c0,6.1,4.9,11,11,11H79c6.1,0,11-4.9,11-11V40.4H82.7L82.7,40.4z"/>
</g>
<text transform="matrix(1 0 0 1 -0.9783 105.104)" style="font-family:'HelveticaNeue-Bold'; font-size:5px;">Created by Julynn B.</text>
<text transform="matrix(1 0 0 1 -0.9783 110.104)" style="font-family:'HelveticaNeue-Bold'; font-size:5px;">from the Noun Project</text>
</svg>
