<?xml version="1.0" encoding="utf-8"?>
<!-- Generator: Adobe Illustrator 23.0.2, SVG Export Plug-In . SVG Version: 6.00 Build 0)  -->
<svg version="1.1" id="Layer_1" xmlns="http://www.w3.org/2000/svg" xmlns:xlink="http://www.w3.org/1999/xlink" x="0px" y="0px"
	 viewBox="0 0 100 100" style="enable-background:new 0 0 100 100;" xml:space="preserve">
<style type="text/css">
	.st0{fill:#F8963E;}
</style>
<g>
	<g>
		<g>
			<g>
				<path class="st0" d="M80.9,100H4.8C2.2,100,0,97.9,0,95.4V15.2c0-2.5,2.1-4.6,4.6-4.6h18.7c0.8,0,1.5,0.6,1.5,1.4
					c0,0.8-0.7,1.4-1.5,1.4H4.6c-0.7,0-1.6,0.8-1.6,1.8v80.2c0,1,0.8,1.8,1.8,1.8h75.5l16.7-16v-66c0-1-0.8-1.8-1.8-1.8H74.5
					c-0.8,0-1.5-0.6-1.5-1.4c0-0.8,0.7-1.4,1.5-1.4h20.7c2.7,0,4.8,2.1,4.8,4.6v66.5c0,0.4-0.2,0.7-0.5,1L82,99.6
					C81.7,99.9,81.3,100,80.9,100z M98.5,81.7L98.5,81.7L98.5,81.7z"/>
			</g>
			<g>
				<path class="st0" d="M65.6,13.4H32c-0.8,0-1.5-0.6-1.5-1.4c0-0.8,0.7-1.4,1.5-1.4h33.6c0.8,0,1.5,0.6,1.5,1.4
					C67.1,12.8,66.4,13.4,65.6,13.4z"/>
			</g>
			<g>
				<path class="st0" d="M80.9,100c-0.8,0-1.5-0.6-1.5-1.4V81.5c0-0.8,0.7-1.4,1.5-1.4h17.5c0.8,0,1.5,0.6,1.5,1.4v0.2
					c0,0.8-0.7,1.4-1.5,1.4c-0.3,0-0.6-0.1-0.8-0.2H82.4v15.6C82.4,99.4,81.8,100,80.9,100z"/>
			</g>
			<g>
				<path class="st0" d="M98.5,31.8h-97c-0.8,0-1.5-0.6-1.5-1.4s0.7-1.4,1.5-1.4h97c0.8,0,1.5,0.6,1.5,1.4S99.3,31.8,98.5,31.8z"/>
			</g>
			<g>
				<g>
					<g>
						<path class="st0" d="M56,71.7H44c-0.8,0-1.5-0.6-1.5-1.4V58.6c0-0.8,0.7-1.4,1.5-1.4H56c0.8,0,1.5,0.6,1.5,1.4v11.6
							C57.5,71,56.8,71.7,56,71.7z M45.5,68.8h9.1v-8.7h-9.1L45.5,68.8L45.5,68.8z"/>
					</g>
					<g>
						<path class="st0" d="M56,53.9H44c-0.8,0-1.5-0.6-1.5-1.4V40.9c0-0.8,0.7-1.4,1.5-1.4H56c0.8,0,1.5,0.6,1.5,1.4v11.6
							C57.5,53.3,56.8,53.9,56,53.9z M45.5,51h9.1v-8.7h-9.1L45.5,51L45.5,51z"/>
					</g>
					<g>
						<path class="st0" d="M56,89.4H44c-0.8,0-1.5-0.6-1.5-1.4V76.4c0-0.8,0.7-1.4,1.5-1.4H56c0.8,0,1.5,0.6,1.5,1.4V88
							C57.5,88.8,56.8,89.4,56,89.4z M45.5,86.5h9.1v-8.7h-9.1L45.5,86.5L45.5,86.5z"/>
					</g>
				</g>
				<g>
					<g>
						<path class="st0" d="M32.9,71.7H20.8c-0.8,0-1.5-0.6-1.5-1.4V58.6c0-0.8,0.7-1.4,1.5-1.4h12.1c0.8,0,1.5,0.6,1.5,1.4v11.6
							C34.4,71,33.7,71.7,32.9,71.7z M22.3,68.8h9.1v-8.7h-9.1V68.8z"/>
					</g>
					<g>
						<path class="st0" d="M32.9,53.9H20.8c-0.8,0-1.5-0.6-1.5-1.4V40.9c0-0.8,0.7-1.4,1.5-1.4h12.1c0.8,0,1.5,0.6,1.5,1.4v11.6
							C34.4,53.3,33.7,53.9,32.9,53.9z M22.3,51h9.1v-8.7h-9.1V51z"/>
					</g>
					<g>
						<path class="st0" d="M32.9,89.4H20.8c-0.8,0-1.5-0.6-1.5-1.4V76.4c0-0.8,0.7-1.4,1.5-1.4h12.1c0.8,0,1.5,0.6,1.5,1.4V88
							C34.4,88.8,33.7,89.4,32.9,89.4z M22.3,86.5h9.1v-8.7h-9.1V86.5z"/>
					</g>
				</g>
				<g>
					<g>
						<path class="st0" d="M79.1,71.7H67.1c-0.8,0-1.5-0.6-1.5-1.4V58.6c0-0.8,0.7-1.4,1.5-1.4h12.1c0.8,0,1.5,0.6,1.5,1.4v11.6
							C80.6,71,80,71.7,79.1,71.7z M68.6,68.8h9.1v-8.7h-9.1V68.8z"/>
					</g>
					<g>
						<path class="st0" d="M79.1,53.9H67.1c-0.8,0-1.5-0.6-1.5-1.4V40.9c0-0.8,0.7-1.4,1.5-1.4h12.1c0.8,0,1.5,0.6,1.5,1.4v11.6
							C80.6,53.3,80,53.9,79.1,53.9z M68.6,51h9.1v-8.7h-9.1V51z"/>
					</g>
				</g>
			</g>
		</g>
		<g>
			<path class="st0" d="M70,23.1c-3.2,0-5.7-2.5-5.7-5.5V5.5c0-3,2.6-5.5,5.7-5.5s5.7,2.5,5.7,5.5v12.1C75.7,20.6,73.2,23.1,70,23.1
				z M70,2.9c-1.5,0-2.7,1.2-2.7,2.6v12.1c0,1.4,1.2,2.6,2.7,2.6c1.5,0,2.7-1.2,2.7-2.6V5.5C72.7,4.1,71.5,2.9,70,2.9z"/>
		</g>
		<g>
			<path class="st0" d="M27.5,23.1c-3.2,0-5.7-2.5-5.7-5.5V5.5c0-3,2.6-5.5,5.7-5.5s5.7,2.5,5.7,5.5v12.1
				C33.2,20.6,30.6,23.1,27.5,23.1z M27.5,2.9c-1.5,0-2.7,1.2-2.7,2.6v12.1c0,1.4,1.2,2.6,2.7,2.6c1.5,0,2.7-1.2,2.7-2.6V5.5
				C30.2,4.1,29,2.9,27.5,2.9z"/>
		</g>
	</g>
</g>
</svg>
