<?xml version="1.0" encoding="utf-8"?>
<!-- Generator: Adobe Illustrator 23.0.1, SVG Export Plug-In . SVG Version: 6.00 Build 0)  -->
<svg version="1.1" id="Layer_1" xmlns="http://www.w3.org/2000/svg" xmlns:xlink="http://www.w3.org/1999/xlink" x="0px" y="0px"
	 viewBox="0 0 100 100" style="enable-background:new 0 0 100 100;" xml:space="preserve">
<style type="text/css">
	.st0{fill:#F8963E;}
</style>
<path class="st0" d="M56.3,93.1c0,1.6,0.6,3.3,1.5,4.6H13.2c-6.7,0-12.1-5.4-12.1-12.1V25.2c0-0.7,0.1-1.5,0.5-2.2
	c0.3-0.7,0.7-1.3,1.3-1.8L23.4,1.5c0.5-0.5,1.1-0.9,1.7-1.1C25.8,0.1,26.5,0,27.2,0h39.5c6.7,0,12.1,5.4,12.1,12.1v36.2
	c-0.9-0.5-1.9-0.7-3-0.7c-0.9,0-1.8,0.2-2.7,0.6V12.1c0-3.5-2.8-6.4-6.4-6.4H29v9.2C29,21.5,23.6,27,16.9,27H6.8v58.6
	c0,3.5,2.8,6.4,6.4,6.4h43.1C56.3,92.4,56.3,92.8,56.3,93.1z M98.3,81.1c1,1.6,0.5,3.4-1.4,4.1c-1.7,0.7-3.3,1.3-5,1.9
	c-0.3,0.1-0.6,0.3-0.6,0.7c-0.1,1.8-0.2,3.6-0.2,5.5c-0.1,1.8-1.6,3-3.4,2.5c-1.8-0.5-3.5-0.9-5.4-1.5c-0.3-0.1-0.6,0-0.8,0.2
	c-1.1,1.5-2.3,2.8-3.4,4.2c-1.3,1.6-3.1,1.6-4.3,0c-1.1-1.4-2.3-2.8-3.4-4.2c-0.2-0.2-0.5-0.3-0.8-0.2c-1.7,0.5-3.4,0.9-5.1,1.4
	c-2.2,0.7-3.6-0.9-3.6-2.7c0-1.7-0.2-3.5-0.2-5.2c0-0.3-0.1-0.6-0.5-0.7c-1.7-0.7-3.5-1.4-5.2-1.9c-1.7-0.7-2.3-2.4-1.4-3.9
	c1-1.6,2.1-3.2,3.1-4.7c0.2-0.3,0.2-0.6,0-0.9c-1-1.5-2.1-3.1-3-4.6c-1-1.6-0.5-3.3,1.3-4.1c1.7-0.7,3.4-1.4,5.1-1.9
	c0.3-0.1,0.5-0.3,0.5-0.7c0.1-1.8,0.1-3.6,0.2-5.5c0.1-1.9,1.6-3,4-2.4c1.3,0.3,3,0.8,4.7,1.3c0.5,0.1,0.7,0.1,1-0.3
	c1.1-1.4,2.2-2.7,3.3-4.2c1.3-1.6,3.1-1.5,4.3,0c1.1,1.4,2.3,2.7,3.4,4.2c0.2,0.3,0.5,0.5,0.9,0.3c1.7-0.5,3.5-1,5.2-1.5
	c1.8-0.5,3.4,0.6,3.5,2.5c0.1,1.8,0.2,3.6,0.3,5.5c0,0.3,0.1,0.6,0.5,0.7c1.7,0.6,3.3,1.3,5,1.8c1.9,0.7,2.5,2.5,1.4,4.2
	c-0.9,1.5-1.9,3-3,4.4c-0.2,0.3-0.2,0.6,0,0.9C96.4,78.1,97.4,79.5,98.3,81.1z M87.6,67.6c-1.1-1.1-3-1.1-4,0L72.6,78.6l-4.2-4.2
	c-1.1-1.1-3-1.1-4,0c-1.1,1.1-1.1,3,0,4l4.2,4.2l1.5,1.5l0.5,0.5c1.1,1.1,3,1.1,4,0l13.1-13C88.7,70.5,88.7,68.7,87.6,67.6z"/>
</svg>
