<?xml version="1.0" encoding="utf-8"?>
<!-- Generator: Adobe Illustrator 23.0.1, SVG Export Plug-In . SVG Version: 6.00 Build 0)  -->
<svg version="1.1" id="Layer_1" xmlns="http://www.w3.org/2000/svg" xmlns:xlink="http://www.w3.org/1999/xlink" x="0px" y="0px"
	 viewBox="0 0 85.8 87.7" style="enable-background:new 0 0 85.8 87.7;" xml:space="preserve">
<style type="text/css">
	.st0{fill:#F8963E;}
</style>
<path class="st0" d="M48.4,81.7c0,1.4,0.5,2.9,1.3,4H10.6C4.7,85.7,0,81,0,75.1v-53c0-0.6,0.1-1.3,0.4-1.9s0.6-1.1,1.1-1.6L19.6,1.3
	c0.4-0.4,1-0.8,1.5-1C21.7,0.1,22.3,0,22.9,0h34.7c5.9,0,10.6,4.7,10.6,10.6v31.8c-0.8-0.4-1.7-0.6-2.6-0.6c-0.8,0-1.6,0.2-2.4,0.5
	V10.6c0-3.1-2.5-5.6-5.6-5.6H24.5v8.1c0,5.8-4.8,10.6-10.6,10.6H5v51.4c0,3.1,2.5,5.6,5.6,5.6h37.8C48.4,81.1,48.4,81.4,48.4,81.7z
	 M85.3,71.2c0.9,1.4,0.4,3-1.2,3.6c-1.5,0.6-2.9,1.1-4.4,1.7c-0.3,0.1-0.5,0.3-0.5,0.6c-0.1,1.6-0.2,3.2-0.2,4.8
	c-0.1,1.6-1.4,2.6-3,2.2s-3.1-0.8-4.7-1.3c-0.3-0.1-0.5,0-0.7,0.2c-1,1.3-2,2.5-3,3.7c-1.1,1.4-2.7,1.4-3.8,0c-1-1.2-2-2.5-3-3.7
	c-0.2-0.2-0.4-0.3-0.7-0.2c-1.5,0.4-3,0.8-4.5,1.2c-1.9,0.6-3.2-0.8-3.2-2.4c0-1.5-0.2-3.1-0.2-4.6c0-0.3-0.1-0.5-0.4-0.6
	c-1.5-0.6-3.1-1.2-4.6-1.7c-1.5-0.6-2-2.1-1.2-3.4c0.9-1.4,1.8-2.8,2.7-4.1c0.2-0.3,0.2-0.5,0-0.8c-0.9-1.3-1.8-2.7-2.6-4
	c-0.9-1.4-0.4-2.9,1.1-3.6c1.5-0.6,3-1.2,4.5-1.7c0.3-0.1,0.4-0.3,0.4-0.6c0.1-1.6,0.1-3.2,0.2-4.8c0.1-1.7,1.4-2.6,3.5-2.1
	c1.1,0.3,2.6,0.7,4.1,1.1c0.4,0.1,0.6,0.1,0.9-0.3c1-1.2,1.9-2.4,2.9-3.7c1.1-1.4,2.7-1.3,3.8,0c1,1.2,2,2.4,3,3.7
	c0.2,0.3,0.4,0.4,0.8,0.3c1.5-0.4,3.1-0.9,4.6-1.3c1.6-0.4,3,0.5,3.1,2.2c0.1,1.6,0.2,3.2,0.3,4.8c0,0.3,0.1,0.5,0.4,0.6
	c1.5,0.5,2.9,1.1,4.4,1.6c1.7,0.6,2.2,2.2,1.2,3.7c-0.8,1.3-1.7,2.6-2.6,3.9c-0.2,0.3-0.2,0.5,0,0.8C83.6,68.5,84.5,69.8,85.3,71.2z
	 M75.9,59.3c-1-1-2.6-1-3.5,0L62.7,69L59,65.3c-1-1-2.6-1-3.5,0c-1,1-1,2.6,0,3.5l3.7,3.7l1.3,1.3l0.4,0.4c1,1,2.6,1,3.5,0
	l11.5-11.4C76.9,61.9,76.9,60.3,75.9,59.3z"/>
</svg>
