<?xml version="1.0" encoding="utf-8"?>
<!-- Generator: Adobe Illustrator 23.0.1, SVG Export Plug-In . SVG Version: 6.00 Build 0)  -->
<svg version="1.1" id="Layer_1" xmlns="http://www.w3.org/2000/svg" xmlns:xlink="http://www.w3.org/1999/xlink" x="0px" y="0px"
	 viewBox="0 0 100 100" style="enable-background:new 0 0 100 100;" xml:space="preserve">
<style type="text/css">
	.st0{fill:#F8963E;}
</style>
<path class="st0" d="M92.3,90.5c4.3,0,7.7-3.4,7.7-7.7V17.3c0-4.3-3.4-7.7-7.7-7.7H7.7C3.4,9.5,0,13,0,17.3v65.5
	c0,4.3,3.4,7.7,7.7,7.7H92.3z M7.7,15h84.4c1.3,0,2.4,1.1,2.4,2.4v11.2h-89V17.3C5.5,16,6.5,15,7.7,15z M5.5,83V34h89.1v48.9
	c0,1.3-1.1,2.4-2.4,2.4H7.7C6.5,85.1,5.5,84.2,5.5,83z M19.8,21.7c0-1.8,1.5-3.2,3.2-3.2s3.2,1.5,3.2,3.2c0,1.8-1.5,3.2-3.2,3.2
	S19.8,23.5,19.8,21.7z M30.5,21.7c0-1.8,1.5-3.2,3.2-3.2s3.2,1.5,3.2,3.2c0,1.8-1.5,3.2-3.2,3.2S30.5,23.5,30.5,21.7z M9,21.7
	c0-1.8,1.5-3.2,3.2-3.2c1.8,0,3.2,1.5,3.2,3.2c0,1.8-1.5,3.2-3.2,3.2C10.5,25,9,23.5,9,21.7z M63.3,70.3l12.5-10.5L63.3,49.2
	c-1.2-1-1.3-2.7-0.3-3.8c1-1.2,2.7-1.3,3.8-0.3l14.8,12.7c0.6,0.5,1,1.3,1,2s-0.3,1.5-1,2L66.8,74.4c-0.5,0.4-1.1,0.6-1.7,0.6
	c-0.8,0-1.5-0.3-2-1C62,73,62.2,71.3,63.3,70.3z M18.4,61.9c-0.6-0.5-1-1.3-1-2s0.3-1.5,1-2l14.8-12.6c1.2-1,2.8-0.9,3.8,0.3
	s0.9,2.8-0.3,3.8L24.2,59.8l12.5,10.5c1.2,1,1.3,2.7,0.3,3.8c-0.5,0.6-1.3,1-2,1c-0.6,0-1.2-0.2-1.7-0.6L18.4,61.9z M41.2,74.6
	L53.8,43c0.5-1.4,2.2-2,3.5-1.5c1.4,0.5,2,2.2,1.5,3.5L46.1,76.5c-0.4,1.1-1.4,1.7-2.5,1.7c-0.3,0-0.6-0.1-1-0.2
	C41.3,77.4,40.6,75.9,41.2,74.6z"/>
</svg>
