<?xml version="1.0" encoding="utf-8"?>
<!-- Generator: Adobe Illustrator 23.0.1, SVG Export Plug-In . SVG Version: 6.00 Build 0)  -->
<svg version="1.1" id="Layer_1" xmlns="http://www.w3.org/2000/svg" xmlns:xlink="http://www.w3.org/1999/xlink" x="0px" y="0px"
	 viewBox="0 0 93 75.9" style="enable-background:new 0 0 93 75.9;" xml:space="preserve">
<style type="text/css">
	.st0{fill:#F8963E;}
</style>
<path class="st0" d="M85.8,75.9c4,0,7.2-3.2,7.2-7.2V7.8c0-4-3.2-7.2-7.2-7.2H7.2C3.2,0.6,0,3.8,0,7.8v60.9c0,4,3.2,7.2,7.2,7.2
	H85.8z M7.2,5.7h78.5c1.2,0,2.2,1,2.2,2.2v10.4H5.1V7.8C5.1,6.6,6,5.7,7.2,5.7z M5.1,68.8V23.2H88v45.5c0,1.2-1,2.2-2.2,2.2H7.2
	C6,70.9,5.1,70,5.1,68.8z M18.4,11.9c0-1.7,1.4-3,3-3s3,1.4,3,3c0,1.7-1.4,3-3,3S18.4,13.6,18.4,11.9z M28.4,11.9c0-1.7,1.4-3,3-3
	s3,1.4,3,3c0,1.7-1.4,3-3,3S28.4,13.6,28.4,11.9z M8.4,11.9c0-1.7,1.4-3,3-3c1.7,0,3,1.4,3,3c0,1.7-1.4,3-3,3
	C9.8,15,8.4,13.6,8.4,11.9z M58.9,57.1l11.6-9.8l-11.6-9.8c-1.1-0.9-1.2-2.5-0.3-3.5c0.9-1.1,2.5-1.2,3.5-0.3l13.8,11.7
	c0.6,0.5,0.9,1.2,0.9,1.9s-0.3,1.4-0.9,1.9L62.1,60.9c-0.5,0.4-1,0.6-1.6,0.6c-0.7,0-1.4-0.3-1.9-0.9C57.7,59.6,57.8,58,58.9,57.1z
	 M17.1,49.2c-0.6-0.5-0.9-1.2-0.9-1.9s0.3-1.4,0.9-1.9l13.8-11.7c1.1-0.9,2.6-0.8,3.5,0.3s0.8,2.6-0.3,3.5l-11.6,9.8l11.6,9.8
	c1.1,0.9,1.2,2.5,0.3,3.5c-0.5,0.6-1.2,0.9-1.9,0.9c-0.6,0-1.1-0.2-1.6-0.6L17.1,49.2z M38.3,61L50,31.7c0.5-1.3,2-1.9,3.3-1.4
	s1.9,2,1.4,3.3L42.9,62.9c-0.4,1-1.3,1.6-2.3,1.6c-0.3,0-0.6-0.1-0.9-0.2C38.4,63.7,37.8,62.3,38.3,61z"/>
</svg>
