<?xml version="1.0" encoding="utf-8"?>
<!-- Generator: Adobe Illustrator 23.0.1, SVG Export Plug-In . SVG Version: 6.00 Build 0)  -->
<svg version="1.1" id="Layer_1" xmlns="http://www.w3.org/2000/svg" xmlns:xlink="http://www.w3.org/1999/xlink" x="0px" y="0px"
	 viewBox="0 0 100 100" style="enable-background:new 0 0 100 100;" xml:space="preserve">
<style type="text/css">
	.st0{fill:#F8963E;}
</style>
<g>
	<path class="st0" d="M90.2,2.1c-1.3-1.3-3.1-2.1-5-2.1H14.9c-1.9,0-3.7,0.8-5,2.1c-1.3,1.2-2.1,3-2.1,5c0,14.8,0,8.6,0,23.3
		c0,2,0.8,3.8,2.1,5l0,0c1.3,1.3,3.1,2.1,5,2.1H33c-0.1,6.9-0.2,14.6-0.2,20.7c-0.1,0-0.3,0.1-0.4,0.2l-6.1,3.3
		c-0.9,0.4-1.6,1.4-1.6,2.6l-0.3,16.3c0,0.7,0.1,1.3,0.6,1.9l9.6,13.7c0.6,0.9,1.2,1.8,2.1,2.8c1.1,1.2,2.9,1.3,4.1,0.2
		c1.2-1.1,1.3-2.9,0.2-4.1c-0.7-0.8-1.2-1.6-1.7-2.2c-0.3-0.6-0.6-1-0.7-1.4V68.9l0,0V66c0.1-8.8,0.2-33.1,0.6-41.1
		c0.2-7.9,5.3-7,5.4,0.4c0,0.6,0,1.1,0,1.6c0.6,13,1,26,1,39.1c0,1.7,1.3,2.9,2.9,2.9c1.7,0,3-1.3,3-2.9v-8.8
		c0.4-0.6,1.1-1.2,1.6-1.6l0,0l0,0c0,0,0.2-0.1,0.4-0.2c1.1-0.6,2.2-0.6,3.1-0.1c0.9,0.3,1.7,1,2.1,1.6c0,0.1,0,0.2,0,0.4V66
		c0,1.7,1.3,2.9,2.9,2.9c1.7,0,2.9-1.3,2.9-2.9v-8.7v-0.1c0.4-0.3,0.8-0.6,1.2-0.6c0.6-0.1,1.1-0.1,1.7,0c0.6,0.1,1.1,0.4,1.7,0.8
		c0.4,0.3,0.8,0.8,1,1.2c0,0.1,0,0.2,0,0.2V66c0,1.7,1.3,2.9,2.9,2.9c1.6,0,2.9-1.3,2.9-2.9v-4.3c0.3,0.1,0.6,0.2,0.8,0.3
		c0.6,0.2,1.4,1,2.3,2c0.9,1,1.6,2,1.8,2.7c1.8,6-0.1,19.2-0.1,19.2l-1.9,10.3c-0.3,1.6,0.8,3.1,2.3,3.4c1.6,0.3,3.1-0.8,3.4-2.3
		l2-10.4v-0.1l0,0c0,0,2.1-14.4-0.1-21.8c-0.4-1.4-1.7-3.3-3-4.9c-1.3-1.6-3-2.9-4.4-3.6c-0.8-0.3-1.9-0.8-3-0.9
		c-0.3,0-0.7-0.1-1-0.1c-0.7-1-1.4-1.9-2.3-2.7c-1.1-0.9-2.6-1.6-3.9-1.9c-1.4-0.3-3-0.3-4.4,0c-0.8,0.2-1.7,0.6-2.3,1
		c-0.9-0.8-2-1.6-3.2-2c-2.2-0.9-4.9-1.1-7.7,0.2l0,0V37.7h34c2,0,3.8-0.8,5-2.1l0,0c1.3-1.3,2.1-3.1,2.1-5V7.2
		C92.3,5.1,91.5,3.3,90.2,2.1z M32.7,66v2.9l0,0l0,0v14.8L30.2,80l0.3-13.8l2.3-1.2L32.7,66z M86.5,30.4c0,0.3-0.1,0.8-0.4,1l0,0
		c-0.2,0.2-0.6,0.4-1,0.4H50.6c-0.1-2-0.1-3.8-0.2-5.2c0-0.6,0-1,0-1.4c0-5.3-0.1-11.8-8.1-11.9c-2.2,0-4.1,0.2-5.7,1.4
		C35,16,34,17.9,33.7,20.9c0,0.2,0,0.3,0,0.6c-0.2,2-0.3,5.8-0.4,10.4H14.9c-0.3,0-0.8-0.1-1-0.4l0,0c-0.2-0.2-0.4-0.6-0.4-1
		c0-14.8,0-8.6,0-23.3c0-0.3,0.1-0.8,0.4-1c0.2-0.2,0.6-0.4,1-0.4h70.1c0.3,0,0.8,0.1,1,0.4c0.2,0.2,0.4,0.6,0.4,1
		C86.5,21.9,86.5,15.7,86.5,30.4z"/>
	<path class="st0" d="M74.4,15.9H56.1c-1.7,0-2.9,1.3-2.9,2.9s1.3,2.9,2.9,2.9h18.3c1.7,0,3-1.3,3-2.9S76.1,15.9,74.4,15.9z"/>
	<path class="st0" d="M29.7,15.9h-4.1c-1.7,0-3,1.3-3,2.9s1.3,2.9,3,2.9h4.1c1.7,0,2.9-1.3,2.9-2.9S31.4,15.9,29.7,15.9z"/>
</g>
</svg>
