<?xml version="1.0" encoding="utf-8"?>
<!-- Generator: Adobe Illustrator 23.0.1, SVG Export Plug-In . SVG Version: 6.00 Build 0)  -->
<svg version="1.1" id="Layer_1" xmlns="http://www.w3.org/2000/svg" xmlns:xlink="http://www.w3.org/1999/xlink" x="0px" y="0px"
	 viewBox="0 0 76 90" style="enable-background:new 0 0 76 90;" xml:space="preserve">
<style type="text/css">
	.st0{fill:#F8963E;}
</style>
<g>
	<path class="st0" d="M74.1,1.9C72.9,0.7,71.3,0,69.6,0H6.4C4.7,0,3.1,0.7,1.9,1.9C0.7,3,0,4.6,0,6.4c0,13.3,0,7.7,0,21
		c0,1.8,0.7,3.4,1.9,4.5l0,0c1.2,1.2,2.8,1.9,4.5,1.9h16.3c-0.1,6.2-0.2,13.1-0.2,18.6c-0.1,0-0.3,0.1-0.4,0.2l-5.5,3
		c-0.8,0.4-1.4,1.3-1.4,2.3l-0.3,14.7c0,0.6,0.1,1.2,0.5,1.7L24,86.6c0.5,0.8,1.1,1.6,1.9,2.5c1,1.1,2.6,1.2,3.7,0.2
		c1.1-1,1.2-2.6,0.2-3.7c-0.6-0.7-1.1-1.4-1.5-2c-0.3-0.5-0.5-0.9-0.6-1.3V62h0l0-2.6c0.1-7.9,0.2-29.8,0.5-37
		c0.2-7.1,4.8-6.3,4.9,0.4c0,0.5,0,1,0,1.4c0.5,11.7,0.9,23.4,0.9,35.2c0,1.5,1.2,2.6,2.6,2.6c1.5,0,2.7-1.2,2.7-2.6v-7.9
		c0.4-0.5,1-1.1,1.4-1.4l0,0h0c0,0,0.2-0.1,0.4-0.2c1-0.5,2-0.5,2.8-0.1c0.8,0.3,1.5,0.9,1.9,1.4c0,0.1,0,0.2,0,0.4v7.8
		c0,1.5,1.2,2.6,2.6,2.6c1.5,0,2.6-1.2,2.6-2.6v-7.8v-0.1c0.4-0.3,0.7-0.5,1.1-0.5c0.5-0.1,1-0.1,1.5,0c0.5,0.1,1,0.4,1.5,0.7
		c0.4,0.3,0.7,0.7,0.9,1.1c0,0.1,0,0.2,0,0.2v6.4c0,1.5,1.2,2.6,2.6,2.6s2.6-1.2,2.6-2.6v-3.9c0.3,0.1,0.5,0.2,0.7,0.3
		c0.5,0.2,1.3,0.9,2.1,1.8c0.8,0.9,1.4,1.8,1.6,2.4c1.6,5.4-0.1,17.3-0.1,17.3l-1.7,9.3c-0.3,1.4,0.7,2.8,2.1,3.1
		c1.4,0.3,2.8-0.7,3.1-2.1l1.8-9.4l0-0.1h0c0,0,1.9-13-0.1-19.6c-0.4-1.3-1.5-3-2.7-4.4c-1.2-1.4-2.7-2.6-4-3.2
		c-0.7-0.3-1.7-0.7-2.7-0.8c-0.3,0-0.6-0.1-0.9-0.1c-0.6-0.9-1.3-1.7-2.1-2.4c-1-0.8-2.3-1.4-3.5-1.7c-1.3-0.3-2.7-0.3-4,0
		c-0.7,0.2-1.5,0.5-2.1,0.9c-0.8-0.7-1.8-1.4-2.9-1.8c-2-0.8-4.4-1-6.9,0.2l0,0V33.9h30.6c1.8,0,3.4-0.7,4.5-1.9l0,0
		c1.2-1.2,1.9-2.8,1.9-4.5v-21C76,4.6,75.3,3,74.1,1.9z M22.4,59.4l0,2.6v0h0v13.3l-2.3-3.3l0.3-12.4l2.1-1.1L22.4,59.4z M70.8,27.4
		c0,0.3-0.1,0.7-0.4,0.9l0,0c-0.2,0.2-0.5,0.4-0.9,0.4h-31c-0.1-1.8-0.1-3.4-0.2-4.7c0-0.5,0-0.9,0-1.3C38.3,17.9,38.2,12.1,31,12
		c-2,0-3.7,0.2-5.1,1.3c-1.4,1.1-2.3,2.8-2.6,5.5c0,0.2,0,0.3,0,0.5c-0.2,1.8-0.3,5.2-0.4,9.4H6.4c-0.3,0-0.7-0.1-0.9-0.4l0,0
		c-0.2-0.2-0.4-0.5-0.4-0.9c0-13.3,0-7.7,0-21c0-0.3,0.1-0.7,0.4-0.9c0.2-0.2,0.5-0.4,0.9-0.4h63.1c0.3,0,0.7,0.1,0.9,0.4
		c0.2,0.2,0.4,0.5,0.4,0.9C70.8,19.7,70.8,14.1,70.8,27.4z"/>
	<path class="st0" d="M59.9,14.3H43.4c-1.5,0-2.6,1.2-2.6,2.6s1.2,2.6,2.6,2.6h16.5c1.5,0,2.7-1.2,2.7-2.6S61.4,14.3,59.9,14.3z"/>
	<path class="st0" d="M19.7,14.3h-3.7c-1.5,0-2.7,1.2-2.7,2.6s1.2,2.6,2.7,2.6h3.7c1.5,0,2.6-1.2,2.6-2.6S21.2,14.3,19.7,14.3z"/>
</g>
</svg>
